<?xml version="1.0" encoding="UTF-8" ?>
<!DOCTYPE svg PUBLIC "-//W3C//DTD SVG 1.1//EN" "http://www.w3.org/Graphics/SVG/1.1/DTD/svg11.dtd">
<svg width="400pt" height="164pt" viewBox="0 0 400 164" version="1.1" xmlns="http://www.w3.org/2000/svg">
<g id="#010101ff">
<path fill="#010101" opacity="1.00" d=" M 83.38 2.40 C 89.22 1.55 95.14 2.13 101.02 1.95 C 109.03 1.68 116.68 4.71 123.70 8.27 C 131.45 12.10 137.38 18.59 143.12 24.87 C 152.78 37.49 157.53 53.32 158.90 68.99 C 158.96 74.20 160.37 79.37 159.61 84.58 C 158.85 90.29 159.04 96.11 157.76 101.75 C 154.84 114.57 149.91 127.21 141.37 137.37 C 132.61 149.12 119.26 157.40 104.77 159.72 C 100.20 160.29 95.59 159.96 91.00 160.05 C 75.52 160.72 61.03 152.30 50.70 141.30 C 35.96 125.40 30.05 103.26 29.92 82.00 C 29.66 61.75 34.85 40.72 47.72 24.74 C 56.27 13.20 69.44 5.44 83.38 2.40 M 85.39 8.42 C 71.05 11.09 58.06 19.83 49.87 31.86 C 41.13 44.17 37.64 59.26 36.14 74.04 C 35.07 90.27 37.90 106.73 44.35 121.67 C 50.85 135.41 62.36 147.30 77.10 151.93 C 84.73 154.78 93.00 154.09 100.98 153.90 C 110.21 152.82 119.22 149.31 126.56 143.57 C 142.55 131.87 150.83 112.22 152.88 92.96 C 153.13 85.31 153.04 77.64 152.94 69.99 C 151.47 53.47 145.90 36.79 134.74 24.26 C 128.61 17.98 120.95 13.18 112.65 10.33 C 103.98 7.05 94.45 7.72 85.39 8.42 Z" />
<path fill="#010101" opacity="1.00" d=" M 185.22 15.23 C 192.57 7.35 202.98 1.57 213.98 1.94 C 219.93 2.09 226.04 1.39 231.83 3.13 C 236.06 4.37 240.05 6.27 243.90 8.40 C 243.44 10.28 242.73 12.06 241.87 13.77 C 233.32 9.41 223.84 6.20 214.11 7.13 C 206.69 8.15 199.10 10.34 193.30 15.29 C 185.68 21.36 181.20 31.28 181.95 41.03 C 182.49 49.18 186.78 56.79 193.08 61.91 C 206.27 72.77 224.00 75.94 237.21 86.78 C 242.46 91.62 247.97 96.82 250.14 103.85 C 253.65 115.60 252.70 128.85 246.63 139.62 C 238.42 152.41 223.44 161.29 207.99 160.06 C 195.59 160.80 182.55 157.79 172.72 149.94 C 173.32 148.15 174.14 146.46 175.16 144.87 C 179.66 146.95 183.67 150.01 188.40 151.62 C 201.98 156.27 218.10 156.64 230.43 148.43 C 244.34 139.17 249.90 119.75 243.56 104.41 C 240.92 98.47 236.53 93.44 231.11 89.90 C 218.38 80.91 202.55 77.49 190.30 67.72 C 183.70 63.06 178.66 56.13 176.73 48.25 C 174.08 36.72 177.29 24.03 185.22 15.23 Z" />
<path fill="#010101" opacity="1.00" d=" M 293.01 4.14 C 320.00 3.79 347.00 4.10 374.00 4.00 C 381.32 4.13 388.65 3.72 395.97 4.14 C 396.09 6.91 396.68 10.26 394.27 12.28 C 369.48 36.15 347.60 64.19 335.91 96.89 C 330.86 110.77 327.32 125.24 326.12 139.98 C 325.91 145.99 325.22 151.97 324.75 157.96 C 322.86 158.08 320.98 158.09 319.10 157.97 C 318.42 152.29 319.74 146.66 319.99 141.00 C 321.15 122.17 326.34 103.83 333.44 86.43 C 343.53 62.32 358.91 40.72 376.67 21.67 C 380.24 17.24 384.34 13.28 388.15 9.06 C 356.44 8.82 324.71 9.24 293.01 8.86 C 292.95 7.29 292.95 5.71 293.01 4.14 Z" />
<path fill="#010101" opacity="1.00" d=" M 3.40 11.16 C 6.05 10.41 9.04 11.31 10.90 13.33 C 11.13 15.47 11.67 18.24 9.81 19.82 C 8.21 21.25 5.79 22.75 3.66 21.49 C -0.51 20.11 -0.08 13.13 3.40 11.16 Z" />
<path fill="#010101" opacity="1.00" d=" M 3.13 49.04 C 5.05 48.91 6.96 48.91 8.87 49.04 C 9.23 83.35 8.84 117.68 9.06 152.01 C 9.10 153.99 8.97 155.98 8.87 157.96 C 6.96 158.08 5.04 158.08 3.13 157.96 C 2.76 123.65 3.17 89.32 2.94 55.00 C 2.90 53.01 3.03 51.02 3.13 49.04 Z" />
</g>
</svg>
