<?xml version="1.0" encoding="utf-8"?>
<!-- Generator: Adobe Illustrator 16.0.0, SVG Export Plug-In . SVG Version: 6.00 Build 0)  -->
<!DOCTYPE svg PUBLIC "-//W3C//DTD SVG 1.1//EN" "http://www.w3.org/Graphics/SVG/1.1/DTD/svg11.dtd">
<svg version="1.1" xmlns="http://www.w3.org/2000/svg" xmlns:xlink="http://www.w3.org/1999/xlink" x="0px" y="0px"
	 width="670.245px" height="482.488px" viewBox="0 0 670.245 482.488" enable-background="new 0 0 670.245 482.488"
	 xml:space="preserve">
<g id="Layer_4">
	<g>
		<path fill="#FFFFFF" d="M639,311.201c0,16.727-13.561,30.287-30.287,30.287H56.287C39.56,341.488,26,327.928,26,311.201V172.775
			c0-16.727,13.56-30.287,30.287-30.287h552.426c16.727,0,30.287,13.56,30.287,30.287V311.201z"/>
		<g>
			<path fill="#CDCCCC" d="M608.807,144.488c15.612,0,28.193,12.774,28.193,28.387v138.892c0,15.613-12.583,28.721-28.195,28.721
				H56.387C40.774,340.488,28,327.38,28,311.768V172.875c0-15.613,12.774-28.387,28.387-28.387H609 M608.805,140.488H56.387
				C38.639,140.488,24,155.127,24,172.875v138.892c0,17.748,14.639,31.721,32.387,31.721h552.418
				c17.748,0,32.195-13.973,32.195-31.721V172.875C641,155.127,626.553,140.488,608.805,140.488L608.805,140.488z"/>
		</g>
	</g>
	<g>
		<path fill="#FFFFFF" d="M639,434.587c0,11.543-9.357,20.901-20.901,20.901H46.901c-11.544,0-20.901-9.357-20.901-20.901v-49.198
			c0-11.543,9.357-20.901,20.901-20.901h571.197c11.544,0,20.901,9.357,20.901,20.901V434.587z"/>
		<g>
			<path fill="#CDCCCC" d="M618,366.488c10.449,0,19,8.55,19,19.001v49.664c0,10.451-8.359,19.335-18.81,19.335H47.001
				c-10.45,0-19.001-8.885-19.001-19.335v-49.664c0-10.451,8.551-19.001,19.001-19.001H618 M618.19,362.488H47.001
				C34.429,362.488,24,372.917,24,385.489v49.664c0,12.573,10.429,22.335,23.001,22.335H618.19c12.572,0,22.81-9.763,22.81-22.335
				v-49.664C641,372.917,630.763,362.488,618.19,362.488L618.19,362.488z"/>
		</g>
	</g>
	<g>
		<path fill="#FFFFFF" d="M639,100.587c0,11.543-9.357,20.901-20.901,20.901H46.901c-11.544,0-20.901-9.357-20.901-20.901V51.389
			c0-11.543,9.357-20.901,20.901-20.901h571.197c11.544,0,20.901,9.357,20.901,20.901V100.587z"/>
		<g>
			<path fill="#CDCCCC" d="M618,32.488c10.449,0,19,8.55,19,19.001v49.664c0,10.451-8.359,19.335-18.81,19.335H47.001
				c-10.45,0-19.001-8.885-19.001-19.335V51.489c0-10.451,8.551-19.001,19.001-19.001H618 M618.19,28.488H47.001
				C34.429,28.488,24,38.917,24,51.489v49.664c0,12.573,10.429,22.335,23.001,22.335H618.19c12.572,0,22.81-9.763,22.81-22.335
				V51.489C641,38.917,630.763,28.488,618.19,28.488L618.19,28.488z"/>
		</g>
	</g>
</g>
<g id="Layer_5">
	<path fill="#231F20" d="M75.367,250.988h5.939v-18.001h-5.939l8.939-9l8.941,9h-5.941v18.001h5.941l-8.941,9L75.367,250.988z"/>
	<path fill="#231F20" d="M74.367,140.821h5.939V122.82h-5.939l8.939-9l8.941,9h-5.941v18.001h5.941l-8.941,9L74.367,140.821z"/>
	<g id="layer1_2_" transform="translate(16.651877,-337.06255)">
		<g id="g14956_2_" transform="matrix(2.659773,0,0,2.659773,137.82894,-1524.5651)">
			<path id="rect14924_2_" fill="#F3F3F3" d="M154.195,793.748
				l-0.864,0.687c-0.476,0.379-1.128,0.855-1.445,1.056c-0.322,0.197-0.547,0.461-0.511,0.581c0.035,0.119,1.04,0.48,2.221,0.792
				c1.976,0.524,5.85,2.164,5.623,2.385c-0.053,0.053-1.216-0.229-2.591-0.626c-4.371-1.26-6.557-1.516-11.581-1.375
				c-3.752,0.106-4.88,0.221-6.795,0.725c-4.694,1.241-9.367,3.779-12.08,6.584c-0.728,0.747-1.639,1.569-2.011,1.802
				c-0.809,0.191-1.073,0.047-1.35-0.106c-0.111-0.061-0.182-0.155-0.224-0.268c-0.095,0.336-0.192,0.635-0.305,0.864
				c0.121-0.018,0.25-0.035,0.382-0.035c0.406-0.014,0.828,0.07,1.074,0.178l1.057,0.784c4.445,3.284,6.857,4.447,9.346,4.483
				c1.319,0.018,1.761-0.088,2.711-0.636c0.547-0.333,1.093-0.738,1.305-0.996c0.034-0.038,0.053-0.066,0.07-0.095
				c0.141-0.247,0.265-0.323,0.353-0.282c2.009-0.511,5.547,0.053,11.112,2.009c0.009,0,0.009,0,0.01,0
				c1.113,0.035,2.798,0.525,5.04,1.463c0.335,0.141,0.423,0.06,0.423-0.352c0-1.268,1.48-2.926,2.768-3.296l0,0
				c2.221-1.269,4.949-1.551,7.367-1.621l-0.106-0.035l1.075-0.07c1.599-0.123,2.997,0.528,4.161,1.903
				c0.556,0.652,1.092,1.181,1.202,1.181c0.34,0,0.238-1.48-0.269-3.877c-0.376-1.801-0.441-2.785-0.323-4.722
				c0.093-1.503,0.057-2.49-0.095-2.588c-0.128-0.079-1.098,0.062-2.153,0.311c-2.874,0.685-4.198,0.844-4.198,0.509
				c0-0.018,0.015-0.045,0.036-0.07c-1.428,0.493-3.506-0.256-4.406-1.12c-0.962-0.917-0.477-2.238-0.952-3.208
				c0,0.308-0.053,0.3-0.423-0.013c-0.229-0.199-0.952-0.508-1.604-0.686c-0.811-0.218-1.482-0.623-2.116-1.267L154.195,793.748z"/>
			<path id="path14839-2_2_" fill="#FDBC5C" d="
				M141.787,805.333c-0.088-1.762-0.229-3.609-0.299-4.103c-0.089-0.519-0.053-0.907,0.088-0.907c0.229,0,0.864,1.312,1.163,2.416
				c0.088,0.336,0.335,0.796,0.529,1.025c0.335,0.388,0.335,0.473-0.018,0.864c-0.229,0.247-0.405,0.811-0.405,1.269
				c0,1.021-0.44,2.644-0.705,2.644C142.034,808.541,141.876,807.096,141.787,805.333z M144.915,807.289
				c-0.059-0.176-0.149-1.709-0.219-3.419c-0.107-2.612-0.085-3.053,0.194-2.823c0.194,0.149,0.406,0.625,0.493,1.048
				c0.089,0.423,0.336,1.018,0.529,1.336c0.272,0.434,0.3,0.705,0.115,1.093c-0.132,0.282-0.321,1.022-0.397,1.657
				C145.471,807.307,145.1,807.888,144.915,807.289z M147.868,804.135c-0.07-1.626-0.07-3.018-0.018-3.081
				c0.156-0.181,0.529,0.518,0.846,1.565c0.16,0.529,0.388,1.039,0.512,1.128c0.135,0.087,0.141,0.339,0.035,0.599
				c-0.124,0.247-0.317,0.933-0.458,1.516C148.291,807.871,147.991,807.289,147.868,804.135L147.868,804.135L147.868,804.135z
				 M151.04,805.456c-0.01-0.757-0.105-1.961-0.194-2.664c-0.106-0.706-0.106-1.333-0.017-1.393
				c0.264-0.159,0.652,0.406,0.846,1.223c0.088,0.401,0.405,0.914,0.687,1.141l0.511,0.408l-0.547,0.388
				c-0.299,0.211-0.546,0.634-0.546,0.952c0,0.725-0.229,1.339-0.511,1.339C151.157,806.849,151.055,806.217,151.04,805.456z
				 M153.949,804.875c0-0.846-0.071-1.957-0.158-2.472c-0.199-1.267,0.21-0.996,1.003,0.639c0.511,1.075,0.546,1.304,0.264,1.621
				c-0.178,0.211-0.37,0.634-0.415,0.952c-0.044,0.328-0.22,0.634-0.378,0.687C154.036,806.373,153.957,805.985,153.949,804.875
				L153.949,804.875z M156.61,803.893c0-2.027,0.035-2.187,0.388-1.842c0.527,0.518,0.705,2.137,0.352,3.194
				C156.874,806.708,156.61,806.234,156.61,803.893L156.61,803.893z M159.147,804.311c-0.457-0.352-0.441-0.371,0.247-0.308
				c0.403,0.039,0.705,0.167,0.687,0.307C160.011,804.699,159.641,804.699,159.147,804.311L159.147,804.311z"/>
			<path id="path14837-1_2_" fill="#010101" d="M154.072,792.364c-0.406,0-0.881,0.169-1.516,0.477
				c-0.547,0.265-1.798,0.767-2.764,1.11c-0.956,0.345-2.189,0.864-2.718,1.163c-0.78,0.435-1.389,0.548-3.119,0.582
				c-6.504,0.108-13.307,2.338-18.118,5.941c-2.485,1.865-3.928,4.067-3.028,4.616c0.278,0.152,0.542,0.297,1.35,0.106
				c0.374-0.232,1.28-1.055,2.012-1.802c2.71-2.804,7.385-5.343,12.076-6.584c1.919-0.503,3.047-0.619,6.794-0.724
				c5.029-0.141,7.215,0.115,11.586,1.375c1.375,0.397,2.539,0.679,2.591,0.627c0.224-0.221-3.648-1.86-5.623-2.386
				c-1.18-0.312-2.185-0.672-2.221-0.792c-0.035-0.119,0.184-0.383,0.511-0.581c0.317-0.2,0.969-0.676,1.445-1.056l0.864-0.687
				l0.934,0.951c0.63,0.645,1.305,1.049,2.116,1.267c0.652,0.179,1.375,0.488,1.604,0.686c0.37,0.322,0.423,0.323,0.423,0.006
				c0-0.459-0.849-1.2-1.975-1.703c-0.476-0.219-1.075-0.691-1.321-1.044C155.218,792.832,154.741,792.364,154.072,792.364
				L154.072,792.364z M171.869,797.662c-0.859,0-7.277,2.996-7.277,3.402c0,0.335,1.323,0.176,4.198-0.51
				c1.056-0.249,2.026-0.39,2.151-0.311c0.155,0.097,0.189,1.084,0.096,2.588c-0.116,1.938-0.052,2.921,0.325,4.722
				c0.506,2.397,0.604,3.877,0.266,3.877c-0.107,0-0.647-0.529-1.2-1.181c-1.164-1.375-2.564-2.026-4.161-1.904l-1.075,0.071
				l1.588,0.547c1.761,0.616,2.308,1.093,3.872,3.436c0.569,0.864,1.16,1.657,1.292,1.756c0.369,0.254,0.527,0.221,0.86-0.171
				c0.142-0.175,0.203-0.651,0.198-1.691c0,0,0-0.005,0-0.017c0.029-0.723,0-1.674-0.072-2.855
				c-0.019-0.336-0.035-0.564-0.052-0.864c-0.159-3.772-0.142-4.512,0.036-7.028C173.142,798.455,172.926,797.662,171.869,797.662z
				 M132.657,802.288c-0.634-0.026-1.318,0.327-1.779,1.036c-0.415,0.634-0.266,1.181,0.58,2.15c0.511,0.599,1.657,0.369,2.38-0.458
				c0.67-0.758,0.67-0.972,0.069-1.974C133.609,802.552,133.151,802.306,132.657,802.288z M131.935,803.482
				c0.265-0.052,0.829,0.317,0.952,0.658c0.141,0.434-0.915,0.347-1.076-0.076c-0.079-0.211-0.07-0.457,0.019-0.547
				C131.864,803.5,131.899,803.482,131.935,803.482L131.935,803.482z M122.664,806.814c-0.141,0-0.277,0.017-0.405,0.052
				c-0.017,0.008-0.03,0.02-0.044,0.035c-0.274,0.106-0.396,0.359-0.345,0.758c0.001,0,0,0,0,0s0.001,0.001,0,0.01
				c-0.017,0.307,0.089,0.624,0.319,0.888c1.18,1.287,7.174,4.371,9.376,4.806c1.454,0.287,2.159,0.287,3.525-0.012
				c1.375-0.299,3.05-1.41,3.454-2.291c0.306-0.687,0.031-1.161-0.317-0.529c-0.137,0.229-0.74,0.723-1.375,1.09
				c-0.951,0.549-1.393,0.655-2.712,0.637c-2.488-0.036-4.9-1.198-9.348-4.483l-1.056-0.784
				C123.492,806.884,123.069,806.799,122.664,806.814L122.664,806.814z M158.444,809.992c-1.375-0.025-3.279,1.937-3.279,3.377
				c0,0.412-0.088,0.493-0.423,0.352c-3.278-1.375-5.358-1.78-6.216-1.216c-0.693,0.458-0.799,1.252-0.182,1.439
				c0.23,0.06,1.502,0.253,2.838,0.411c1.321,0.158,2.573,0.371,2.775,0.487c0.257,0.148,0.609,0.202,0.962,0.2
				c0.018,0,0.035,0,0.053,0c0.016,0,0.017,0,0.017,0c0.305-0.002,0.577-0.069,0.758-0.192c0-0.001,0.014-0.001,0.017-0.008
				c0-0.008,0-0.01,0-0.01c0.071-0.035,0.138-0.069,0.191-0.106c0.285-0.22,0.423-0.656,0.423-1.41c0-1.145,0.358-1.709,1.802-2.784
				C158.778,810.095,158.831,810.003,158.444,809.992L158.444,809.992z"/>
			<path id="path14837-1-6_2_" fill="#7C9AD0" d="M132.94,811.128l-0.846-0.261
				l1.512-0.282c1.994-0.376,2.472-0.845,2.472-2.344c0-1.269,0.255-1.462,0.842-0.634c0.832,1.199,0.25,2.857-1.224,3.476
				C134.772,811.471,134.135,811.484,132.94,811.128L132.94,811.128z M166.158,805.932c0.111-0.66,0.04-1.268-0.223-1.878
				c-0.462-1.121-0.467-1.085,0.087-1.085c0.685,0,1.762,1.377,1.583,2.012c-0.198,0.686-0.912,1.673-1.301,1.8
				C166.069,806.866,166.032,806.655,166.158,805.932z M157.472,800.032c-4.775-1.542-13.235-1.586-18.927-0.096
				c-1.164,0.302-1.427,0.308-1.707,0.026c-0.479-0.476,0.39-0.978,2.764-1.602c4.64-0.884,15.987-1.244,19.917,2.058
				C159.518,800.631,159.025,800.535,157.472,800.032z"/>
		</g>
	</g>
	<path fill="#231F20" d="M73.849,361.832h5.939v-18.001h-5.939l8.939-9l8.941,9h-5.941v18.001h5.941l-8.941,9L73.849,361.832z"/>
	<text transform="matrix(1 0 0 1 448.2343 196.9962)"><tspan x="0" y="0" font-family="'HelveticaNeue'" font-size="31">Application</tspan><tspan x="33.029" y="34" font-family="'HelveticaNeue'" font-size="31">Server</tspan></text>
	<text transform="matrix(1 0 0 1 448.7968 65.9962)" font-family="'HelveticaNeue'" font-size="31">Client</text>
	<text transform="matrix(1 0 0 1 449.6191 396.5274)" font-family="'HelveticaNeue'" font-size="31">DBMS</text>
	<g id="g10_2_" transform="matrix(1.25,0,0,-1.25,0,207.4875)">
		<g id="g12_2_" transform="scale(0.1,0.1)">
			<path id="path24_2_" fill="#5D87A1" d="M4396.929-1831.542h-28.875
				c-1.023,48.723-3.844,94.566-8.469,137.508h-0.25l-43.914-137.508h-22l-43.68,137.508h-0.273
				c-3.258-41.246-5.281-87.074-6.117-137.508h-26.336c1.688,61.34,5.969,118.84,12.789,172.496h35.773l41.641-126.746h0.273
				l41.945,126.746h34.203C4391.164-1721.878,4395.609-1779.417,4396.929-1831.542"/>
			<path id="path26_2_" fill="#5D87A1" d="M4522.218-1704.28
				c-11.859-63.789-27.328-110.148-46.625-139.078c-14.977-22.285-31.414-33.426-49.281-33.426c-4.758,0-10.602,1.449-17.602,4.301
				v15.367c3.398-0.492,7.344-0.762,11.961-0.762c8.406,0,15.148,2.301,20.234,6.918c6.07,5.613,9.148,11.918,9.148,18.902
				c0,4.766-2.336,14.562-7.133,29.387l-31.664,98.391h28.375l22.773-73.586c5.094-16.707,7.219-28.379,6.352-35.027
				c12.461,33.234,21.117,69.43,26.109,108.613H4522.218"/>
			<path id="path28_2_" fill="#F89921" d="M4906.522-1831.542h-82.023v172.496h27.633v-151.277
				h54.391V-1831.542"/>
			<path id="path30_2_" fill="#F89921" d="M4700.351-1797.042
				c-7,11.25-10.547,29.297-10.547,54.18c0,43.43,13.164,65.199,39.672,65.199c13.711,0,23.898-5.25,30.422-15.586
				c6.953-11.273,10.391-29.145,10.391-53.719c0-43.754-13.195-65.676-39.531-65.676
				C4716.882-1812.643,4706.804-1807.448,4700.351-1797.042 M4803.007-1835.714l-31.711,15.641c2.828,2.316,5.562,4.809,7.969,7.699
				c13.422,15.848,20.156,39.258,20.156,70.285c0,57.09-22.383,85.582-67.125,85.582c-22.07,0-39.141-7.215-51.469-21.672
				c-13.453-15.848-20.156-39.195-20.156-70.07c0-30.316,5.938-52.551,17.875-66.676c10.977-12.785,27.375-19.172,49.398-19.172
				c8.188,0,15.719,1.008,22.5,3.016l41.344-24.004L4803.007-1835.714"/>
			<path id="path32_2_" fill="#F89921" d="M4648.617-1783.729
				c0-14.637-5.336-26.641-16.047-36.043c-10.781-9.355-25.148-14.055-43.188-14.055c-16.891,0-33.195,5.414-49.117,16.117
				l7.477,14.816c13.664-6.816,26-10.219,37.055-10.219c10.383,0,18.484,2.316,24.305,6.887c5.938,4.598,9.531,11.027,9.531,19.152
				c0,10.258-7.203,19.004-20.359,26.355c-12.109,6.637-36.281,20.508-36.281,20.508c-13.039,9.57-19.664,19.785-19.664,36.688
				c0,14.008,4.891,25.27,14.695,33.871c9.797,8.633,22.438,12.895,37.906,12.895c16.047,0,30.68-4.262,43.828-12.77l-6.703-14.816
				c-11.297,4.762-22.336,7.191-33.266,7.191c-8.766,0-15.703-2.164-20.359-6.418c-4.891-4.262-7.734-9.68-7.734-16.363
				c0-10.195,7.219-19.078,20.711-26.566c12.289-6.625,37.039-20.754,37.039-20.754
				C4641.882-1756.796,4648.617-1766.971,4648.617-1783.729"/>
			<path id="path34_2_" fill="#5D87A1" d="M4941.163-1601.214
				c-16.695,0.398-29.586-1.277-40.43-5.887c-3.141-1.199-8.117-1.199-8.562-5.188c1.711-1.68,1.875-4.383,3.344-6.703
				c2.516-4.125,6.883-9.793,10.828-12.68c4.391-3.312,8.758-6.66,13.375-9.617c8.094-5.027,17.305-7.871,25.211-12.898
				c4.594-2.949,9.156-6.699,13.75-9.793c2.312-1.68,3.75-4.383,6.68-5.414v0.641c-1.461,1.828-1.875,4.543-3.336,6.684
				c-2.078,2.07-4.172,3.898-6.258,5.996c-6.047,8.137-13.578,15.203-21.656,21.09c-6.688,4.543-21.305,10.836-23.977,18.508
				c0,0-0.234,0.188-0.43,0.445c4.57,0.391,10.016,2.062,14.383,3.352c7.086,1.844,13.523,1.422,20.844,3.328
				c3.328,0.801,6.672,1.832,10.016,2.863v1.934c-3.766,3.738-6.5,8.766-10.445,12.246c-10.594,9.184-22.305,18.176-34.367,25.656
				c-6.477,4.188-14.82,6.871-21.703,10.438c-2.484,1.277-6.641,1.863-8.117,3.988c-3.773,4.539-5.867,10.59-8.555,16.008
				c-6.062,11.457-11.867,24.199-17.07,36.305c-3.766,8.117-6.078,16.238-10.672,23.742c-21.453,35.441-44.804,56.891-80.679,77.949
				c-7.695,4.379-16.828,6.27-26.625,8.551c-5.188,0.219-10.453,0.629-15.695,0.836c-3.336,1.465-6.68,5.418-9.555,7.305
				c-11.875,7.508-42.539,23.75-51.305,2.285c-5.641-13.562,8.375-26.887,13.156-33.77c3.602-4.793,8.203-10.223,10.578-15.641
				c1.531-3.535,1.961-7.301,3.344-11.039c3.344-9.164,6.461-19.383,10.852-27.941c2.289-4.375,4.867-8.957,7.711-12.914
				c1.773-2.297,4.633-3.328,5.234-7.094c-2.914-4.152-3.156-10.422-4.742-15.617c-7.484-23.566-4.625-52.734,5.961-70.062
				c3.344-5.191,11.328-16.664,21.906-12.281c9.438,3.742,7.328,15.609,10.047,26.039c0.578,2.547,0.234,4.172,1.477,5.824v-0.41
				c2.891-5.801,5.773-11.457,8.562-17.273c6.445-10.184,17.672-20.883,27.078-27.957c4.93-3.754,8.984-10.199,15.203-12.523v0.648
				h-0.461c-1.234,1.906-3.109,2.707-4.727,4.156c-3.805,3.781-7.945,8.348-10.828,12.52c-8.758,11.684-16.477,24.586-23.398,37.973
				c-3.344,6.453-6.219,13.543-8.992,19.988c-1.219,2.473-1.219,6.262-3.336,7.488c-3.141-4.543-7.68-8.523-9.93-14.164
				c-4.039-8.93-4.367-20.008-5.875-31.48c-0.797-0.219-0.453,0-0.797-0.387c-6.664,1.668-8.984,8.512-11.539,14.32
				c-6.211,14.824-7.258,38.621-1.828,55.691c1.484,4.371,7.734,18.141,5.164,22.305c-1.266,3.973-5.414,6.254-7.727,9.387
				c-2.609,3.965-5.625,8.949-7.484,13.34c-4.922,11.668-7.484,24.59-12.898,36.27c-2.523,5.422-6.922,11.055-10.352,16.047
				c-4.078,5.621-8.453,9.582-11.562,16.254c-1.031,2.305-2.461,6.051-0.773,8.535c0.383,1.668,1.289,2.297,2.852,2.727
				c2.805,2.285,10.523-0.625,13.133-1.867c7.734-3.129,14.18-6.051,20.633-10.422c2.969-2.086,6.125-6.055,9.797-7.109h4.383
				c6.695-1.445,14.18-0.395,20.453-2.285c11.023-3.539,21.039-8.762,30.055-14.391c27.289-17.289,49.765-41.891,64.984-71.281
				c2.523-4.777,3.578-9.16,5.883-14.168c4.359-10.207,9.797-20.637,14.156-30.664c4.383-9.797,8.562-19.75,14.805-27.898
				c3.102-4.359,15.633-6.668,21.258-8.988c4.164-1.84,10.641-3.504,14.383-5.801c7.086-4.383,14.133-9.41,20.828-14.18
				C4930.124-1591.87,4940.538-1597.077,4941.163-1601.214"/>
			<path id="path36_2_" fill="#5D87A1" d="M4728.523-1420.1c-3.453,0-5.977-0.43-8.547-1.043
				v-0.418h0.484c1.594-3.324,4.609-5.641,6.68-8.555c1.602-3.344,3.125-6.652,4.719-10c0.219,0.203,0.469,0.426,0.469,0.426
				c2.875,2.07,4.383,5.41,4.383,10.422c-1.273,1.469-1.508,2.91-2.555,4.383C4732.898-1422.811,4730.265-1421.776,4728.523-1420.1"
				/>
			<path id="path38_2_" fill="#F89921" d="M4926.226-1831.538h4.602v17.562h5.953v3.578h-16.766
				v-3.578h6.211V-1831.538z M4961.03-1831.538h4.328v21.141h-6.5l-5.266-14.406l-5.734,14.406h-6.273v-21.141h4.094v16.102h0.234
				l6-16.102h3.133l5.984,16.102V-1831.538"/>
		</g>
	</g>
	
		<radialGradient id="path2814_1_" cx="-458.2109" cy="562.2794" r="12.2754" gradientTransform="matrix(0.0704 -3.1713 -3.1627 -0.0736 2392.3091 -1335.0212)" gradientUnits="userSpaceOnUse">
		<stop  offset="0" style="stop-color:#FFFFFF"/>
		<stop  offset="1" style="stop-color:#010101;stop-opacity:0"/>
	</radialGradient>
	
		<path id="path2814_2_" fill="url(#path2814_1_)" d="
		M622.27,78.433c0,22.463-17.771,40.675-39.685,40.675c-21.916,0-39.686-18.211-39.686-40.675c0-22.464,17.77-40.676,39.686-40.676
		C604.499,37.757,622.27,55.969,622.27,78.433z"/>
	
		<linearGradient id="path3655_1_" gradientUnits="userSpaceOnUse" x1="565.5596" y1="1086.9385" x2="585.0729" y2="1089.0543" gradientTransform="matrix(1 0 0 -1 28.3364 1150.755)">
		<stop  offset="0" style="stop-color:#B3CDE7"/>
		<stop  offset="1" style="stop-color:#C5DBED"/>
	</linearGradient>
	<path id="path3655_2_" fill="url(#path3655_1_)" d="M616.011,61.71
		c0,5.212-6.585,11.617-15.241,11.617c-8.658,0-19.924-5.346-19.924-10.562c0-5.212,7.021-9.439,15.679-9.439
		c6.624,0,15.418,6.083,18.78,6.769C615.568,60.665,615.761,61.067,616.011,61.71z"/>
	<path id="path3655-4-8_2_" fill="#2F5C91" d="M551.708,54.345c4.123-3.199,11.75-0.417,17.056,6.429
		c5.318,6.841,5.887,16.983,1.779,20.181c-4.13,3.198-11.374-1.764-16.685-8.607c-4.062-5.227-1.347-13.698-2.867-16.771
		C551.196,55.204,551.452,54.761,551.708,54.345z"/>
	
		<radialGradient id="path3596_1_" cx="-1109.8643" cy="1733.1201" r="46.068" gradientTransform="matrix(-0.0052 0.3849 0.7121 0.0097 -659.1621 454.3213)" gradientUnits="userSpaceOnUse">
		<stop  offset="0" style="stop-color:#668DB6"/>
		<stop  offset="0.7678" style="stop-color:#5280AC"/>
		<stop  offset="1" style="stop-color:#4272A1"/>
	</radialGradient>
	<path id="path3596_2_" fill="url(#path3596_1_)" d="M615.306,60.093
		c-2.33-0.01-20.313,0.096-35.796,0.023c-5.794,1.699-10.555,4.407-13.044,9.697c-1.775-1.515-13.55-14.041-14.764-15.448
		c10.443-13.851,24.782-15.15,27.573-15.15C582.065,39.215,602.775,36.344,615.306,60.093L615.306,60.093z"/>
	<path id="path3655-4_2_" fill="#6A9DD3" d="M577.759,113.54c-4.156-3.145-4.854-12.284,0.383-19.194
		c5.222-6.911,13.642-11.627,17.798-8.478c4.157,3.148,2.474,12.96-2.761,19.866c-3.989,5.282-11.793,5.619-14.371,7.883
		C578.393,113.602,578.166,113.595,577.759,113.54z"/>
	
		<radialGradient id="path3596-1_1_" cx="-483.5073" cy="1103.1416" r="29.1366" gradientTransform="matrix(0.5612 1.1735 1.4856 -0.7105 -784.8856 1425.8914)" gradientUnits="userSpaceOnUse">
		<stop  offset="0" style="stop-color:#D0E2F0"/>
		<stop  offset="0.8558" style="stop-color:#CBDEEF"/>
		<stop  offset="1" style="stop-color:#96BEE2"/>
	</radialGradient>
	<path id="path3596-1_2_" fill="url(#path3596-1_1_)" d="M578.806,113.617
		c1.196-2.005,9.6-17.593,17.522-30.913c1.472-5.836,1.774-11.182-1.509-16.008c2.197-0.766,19.363-4.648,21.192-4.986
		c6.644,16.021,0.484,29.047-0.931,31.45C613.665,95.566,605.64,114.864,578.806,113.617L578.806,113.617z"/>
	
		<radialGradient id="path3596-1-7_1_" cx="-1479.771" cy="416.1011" r="28.6137" gradientTransform="matrix(-0.8879 -0.0593 -0.0791 1.183 -711.3065 -504.7722)" gradientUnits="userSpaceOnUse">
		<stop  offset="0" style="stop-color:#96D0E0"/>
		<stop  offset="0.6782" style="stop-color:#89B7E2"/>
		<stop  offset="1" style="stop-color:#6A9DD3"/>
	</radialGradient>
	<path id="path3596-1-7_2_" fill="url(#path3596-1-7_1_)" d="M551.004,55.563
		c1.155,2.027,10.218,17.558,17.894,31.023c4.35,4.157,9.192,6.479,15.013,5.993c-0.412,2.293-5.525,19.211-6.127,20.964
		c-17.218-2.135-25.502-13.917-26.896-16.337C549.492,94.79,536.679,78.274,551.004,55.563z"/>
	
		<linearGradient id="path3645_1_" gradientUnits="userSpaceOnUse" x1="279.8115" y1="1175.5938" x2="279.896" y2="1208.1313" gradientTransform="matrix(0.7729 0 0 -0.7762 365.2624 1001.1174)">
		<stop  offset="0" style="stop-color:#3D7ABC"/>
		<stop  offset="1" style="stop-color:#95B8E0"/>
	</linearGradient>
	
		<linearGradient id="path3645_3_" gradientUnits="userSpaceOnUse" x1="279.7461" y1="1212.8145" x2="279.9613" y2="1170.1411" gradientTransform="matrix(0.7729 0 0 -0.7762 365.2624 1001.1174)">
		<stop  offset="0" style="stop-color:#D8DFF0"/>
		<stop  offset="0.5" style="stop-color:#FFFFFF"/>
		<stop  offset="1" style="stop-color:#D5DFF0"/>
	</linearGradient>
	<path id="path3645_2_" fill="url(#path3645_1_)" stroke="url(#path3645_3_)" stroke-width="3.3491" d="M596.766,76.307
		c0,8.421-6.799,15.256-15.191,15.256c-8.391,0-15.192-6.835-15.192-15.256c0-8.435,6.802-15.267,15.192-15.267
		C589.967,61.04,596.766,67.873,596.766,76.307z"/>
	<path id="rect3782_2_" fill="#FFFFFF" d="M593.188,68.622c6.171,5.685,5.332,9.83,3.354,14.63
		C595.502,75.856,595.749,72.465,593.188,68.622z"/>
	<path id="rect3782-4_2_" fill="#FFFFFF" d="M572.536,90.153c-7.541-4.815-9.924-15.21-2.935-20.954
		C565.996,75.774,567.533,79.974,572.536,90.153z"/>
</g>
<g id="Layer_2">
	<g>
		<path fill="#ECECEC" d="M431,213.079c0,4.645-3.765,8.41-8.409,8.41H55.409c-4.645,0-8.409-3.765-8.409-8.41v-50.181
			c0-4.645,3.765-8.41,8.409-8.41h367.182c4.645,0,8.409,3.765,8.409,8.41V213.079z"/>
		<path fill="#FFFFFF" d="M430,214.843c0,4.222-3.423,7.645-7.645,7.645H55.645c-4.222,0-7.645-3.423-7.645-7.645v-50.71
			c0-4.222,3.423-7.645,7.645-7.645h366.711c4.222,0,7.645,3.423,7.645,7.645V214.843z"/>
		<path fill="#CDCCCC" d="M422.221,155.488c4.204,0,7.779,2.94,7.779,7.145v50.456c0,4.205-3.575,7.399-7.779,7.399H55.268
			c-4.204,0-7.268-3.194-7.268-7.399v-50.456c0-4.205,3.063-7.145,7.268-7.145H422 M422.221,153.488H55.268
			c-5.059,0-9.268,4.086-9.268,9.145v50.456c0,5.059,4.209,9.399,9.268,9.399h366.953c5.059,0,8.779-4.341,8.779-9.399v-50.456
			C431,157.575,427.279,153.488,422.221,153.488L422.221,153.488z"/>
	</g>
	<g>
		<path fill="#CDCCCC" d="M120,221.488H56.033c-4.223,0-8.033-3.412-8.033-7.635v-50.456c0-4.223,3.811-7.909,8.033-7.909H120
			V221.488z"/>
		<path fill="#EFEEEE" d="M119,221.488H54.504c-4.223,0-7.504-3.412-7.504-7.635v-50.456c0-4.223,3.281-7.909,7.504-7.909H119
			V221.488z"/>
	</g>
	<text transform="matrix(1 0 0 1 136.9453 188.626)" fill="#989898" font-family="'HelveticaNeue'" font-size="27.5215">Web Tier</text>
	<text transform="matrix(1 0 0 1 136.9453 208.1597)" fill="#989898" font-family="'HelveticaNeue'" font-size="14">REST Endpoints - JAX-RS</text>
	<path fill="#231F20" d="M66.522,199.286c-1.131-1.14-1.695-2.51-1.695-4.11c0-1.38,0.425-2.604,1.275-3.675
		c0.85-1.069,1.935-1.745,3.254-2.024c-0.039-0.24-0.06-0.61-0.06-1.11c0-3.06,1.08-5.665,3.24-7.815
		c2.16-2.149,4.76-3.225,7.8-3.225c2.2,0,4.206,0.596,6.017,1.785c1.809,1.189,3.154,2.755,4.035,4.695
		c0.879-0.28,1.779-0.42,2.699-0.42c2.4,0,4.449,0.865,6.15,2.594c1.699,1.73,2.549,3.795,2.549,6.195c0,2.44-0.85,4.521-2.549,6.24
		c-1.701,1.721-3.75,2.58-6.15,2.58H70.587C69.007,200.996,67.651,200.426,66.522,199.286z"/>
</g>
<g id="Layer_6">
	<g>
		<path fill="#ECECEC" d="M431,433.079c0,4.645-3.765,8.41-8.409,8.41H55.409c-4.645,0-8.409-3.765-8.409-8.41v-50.181
			c0-4.645,3.765-8.41,8.409-8.41h367.182c4.645,0,8.409,3.765,8.409,8.41V433.079z"/>
		<path fill="#FFFFFF" d="M430,434.843c0,4.222-3.423,7.645-7.645,7.645H55.645c-4.222,0-7.645-3.423-7.645-7.645v-50.71
			c0-4.222,3.423-7.645,7.645-7.645h366.711c4.222,0,7.645,3.423,7.645,7.645V434.843z"/>
		<path fill="#CDCCCC" d="M422.221,375.488c4.204,0,7.779,2.94,7.779,7.145v50.456c0,4.205-3.575,7.399-7.779,7.399H55.268
			c-4.204,0-7.268-3.194-7.268-7.399v-50.456c0-4.205,3.063-7.145,7.268-7.145H422 M422.221,373.488H55.268
			c-5.059,0-9.268,4.086-9.268,9.145v50.456c0,5.059,4.209,9.399,9.268,9.399h366.953c5.059,0,8.779-4.341,8.779-9.399v-50.456
			C431,377.575,427.279,373.488,422.221,373.488L422.221,373.488z"/>
	</g>
	<g>
		<path fill="#CDCCCC" d="M120,441.488H56.033c-4.223,0-8.033-3.412-8.033-7.635v-50.456c0-4.223,3.811-7.909,8.033-7.909H120
			V441.488z"/>
		<path fill="#EFEEEE" d="M119,441.488H54.504c-4.223,0-7.504-3.412-7.504-7.635v-50.456c0-4.223,3.281-7.909,7.504-7.909H119
			V441.488z"/>
	</g>
	<text transform="matrix(1 0 0 1 136.9453 408.626)" fill="#989898" font-family="'HelveticaNeue'" font-size="27.5215">Data Tier</text>
	<text transform="matrix(1 0 0 1 136.9453 428.1597)" fill="#989898" font-family="'HelveticaNeue'" font-size="14">MySQL</text>
	<path fill="#231F20" d="M68.307,392.126h30c0.82,0,1.523,0.295,2.115,0.885c0.59,0.59,0.885,1.295,0.885,2.115v3
		c0,0.82-0.295,1.525-0.885,2.115c-0.592,0.59-1.295,0.885-2.115,0.885h-30c-0.82,0-1.525-0.295-2.115-0.885
		s-0.885-1.295-0.885-2.115v-3c0-0.82,0.295-1.525,0.885-2.115S67.486,392.126,68.307,392.126z M68.307,404.126h30
		c0.82,0,1.523,0.295,2.115,0.885c0.59,0.59,0.885,1.295,0.885,2.115v3c0,0.82-0.295,1.525-0.885,2.115
		c-0.592,0.59-1.295,0.885-2.115,0.885h-30c-0.82,0-1.525-0.295-2.115-0.885s-0.885-1.295-0.885-2.115v-3
		c0-0.82,0.295-1.525,0.885-2.115S67.486,404.126,68.307,404.126z M68.307,416.126h30c0.82,0,1.523,0.295,2.115,0.885
		c0.59,0.59,0.885,1.295,0.885,2.115v3c0,0.82-0.295,1.525-0.885,2.115c-0.592,0.59-1.295,0.885-2.115,0.885h-30
		c-0.82,0-1.525-0.295-2.115-0.885s-0.885-1.295-0.885-2.115v-3c0-0.82,0.295-1.525,0.885-2.115S67.486,416.126,68.307,416.126z
		 M98.307,407.126h-15v3h15V407.126z M98.307,419.126h-9v3h9V419.126z M98.307,395.126h-6v3h6V395.126z"/>
</g>
<g id="Layer_7">
	<g>
		<path fill="#ECECEC" d="M431,101.079c0,4.645-3.765,8.41-8.409,8.41H55.409c-4.645,0-8.409-3.765-8.409-8.41V50.898
			c0-4.645,3.765-8.41,8.409-8.41h367.182c4.645,0,8.409,3.765,8.409,8.41V101.079z"/>
		<path fill="#FFFFFF" d="M430,102.843c0,4.222-3.423,7.645-7.645,7.645H55.645c-4.222,0-7.645-3.423-7.645-7.645v-50.71
			c0-4.222,3.423-7.645,7.645-7.645h366.711c4.222,0,7.645,3.423,7.645,7.645V102.843z"/>
		<path fill="#CDCCCC" d="M422.221,43.488c4.204,0,7.779,2.94,7.779,7.145v50.456c0,4.205-3.575,7.399-7.779,7.399H55.268
			c-4.204,0-7.268-3.194-7.268-7.399V50.633c0-4.205,3.063-7.145,7.268-7.145H422 M422.221,41.488H55.268
			c-5.059,0-9.268,4.086-9.268,9.145v50.456c0,5.059,4.209,9.399,9.268,9.399h366.953c5.059,0,8.779-4.341,8.779-9.399V50.633
			C431,45.575,427.279,41.488,422.221,41.488L422.221,41.488z"/>
	</g>
	<g>
		<path fill="#CDCCCC" d="M120,109.488H56.033c-4.223,0-8.033-3.412-8.033-7.635V51.398c0-4.223,3.811-7.909,8.033-7.909H120
			V109.488z"/>
		<path fill="#EFEEEE" d="M119,109.488H54.504c-4.223,0-7.504-3.412-7.504-7.635V51.398c0-4.223,3.281-7.909,7.504-7.909H119
			V109.488z"/>
	</g>
	<text transform="matrix(1 0 0 1 136.9453 76.626)" fill="#989898" font-family="'HelveticaNeue'" font-size="27.5215">Client Tier</text>
	<text transform="matrix(1 0 0 1 136.9453 96.1597)" fill="#989898" font-family="'HelveticaNeue'" font-size="14">Web browser: HTML5 + AngularJS + jQuery</text>
	<path fill="#231F20" d="M83.321,57.937c2.42,0,4.735,0.475,6.945,1.425s4.114,2.225,5.715,3.825c1.6,1.6,2.875,3.505,3.825,5.715
		c0.949,2.21,1.425,4.535,1.425,6.975c0,3.24-0.8,6.234-2.4,8.984c-1.6,2.75-3.775,4.926-6.524,6.525c-2.75,1.6-5.745,2.4-8.985,2.4
		s-6.24-0.801-9-2.4s-4.94-3.775-6.54-6.525c-1.601-2.75-2.399-5.744-2.399-8.984c0-2.439,0.475-4.765,1.425-6.975
		c0.949-2.21,2.225-4.115,3.825-5.715c1.6-1.601,3.505-2.875,5.715-3.825C78.556,58.411,80.881,57.937,83.321,57.937z
		 M84.041,60.756c-0.3,0.24-0.665,0.45-1.095,0.63c-0.43,0.181-0.775,0.301-1.035,0.36s-0.7,0.141-1.319,0.24
		c-0.62,0.101-1.011,0.16-1.17,0.18c-0.301,0.061-0.756,0.056-1.365-0.015c-0.61-0.07-1.065-0.045-1.365,0.075
		c-0.42,0.14-0.94,0.404-1.56,0.795c-0.62,0.39-0.96,0.734-1.021,1.034c-0.06,0.221,0.005,0.445,0.195,0.676
		c0.189,0.229,0.274,0.415,0.255,0.555c-0.061,0.68-0.335,1.585-0.825,2.715s-0.785,1.926-0.885,2.385
		c-0.16,0.66-0.105,1.586,0.165,2.775c0.27,1.19,0.345,2.065,0.225,2.625c0,0.18,0.17,0.62,0.51,1.32
		c0.34,0.699,0.5,1.299,0.48,1.799c0.24,0,0.47,0.057,0.69,0.166c0.22,0.109,0.449,0.26,0.689,0.449
		c0.24,0.191,0.439,0.326,0.601,0.404c0.479,0.24,1.56,0.66,3.239,1.262c0.44,0.16,0.97,0.475,1.59,0.943
		c0.62,0.471,1.216,0.855,1.785,1.156c0.57,0.299,1.145,0.41,1.726,0.33c0.159,0.359,0.01,0.91-0.45,1.65
		c-0.46,0.738-0.66,1.309-0.601,1.709c0.841,1.42,1.711,2.221,2.61,2.4c0,0.119-0.03,0.275-0.09,0.465s-0.095,0.336-0.105,0.436
		c-0.01,0.1,0.035,0.27,0.136,0.51c2.04,0.039,4.249-1.08,6.63-3.361c0.6-0.578,1.069-1.049,1.41-1.408
		c0.34-0.361,0.685-0.852,1.034-1.471c0.351-0.619,0.556-1.24,0.615-1.859c-0.28-0.182-0.65-0.275-1.109-0.285
		c-0.461-0.01-0.82-0.086-1.08-0.227c-0.28-0.139-0.771-0.289-1.471-0.449s-1.22-0.35-1.56-0.57c-0.18,0-0.575,0.006-1.185,0.016
		c-0.61,0.01-1.076,0.025-1.396,0.045c-0.32,0.02-0.71,0.086-1.17,0.195s-0.851,0.275-1.17,0.494c-1,0.701-1.66,0.82-1.98,0.361
		c-0.08-0.041-0.115-0.295-0.104-0.766c0.01-0.471,0.015-0.725,0.015-0.766c-0.12-0.26-0.385-0.43-0.795-0.51
		s-0.655-0.15-0.735-0.209c0.04-0.441,0.021-0.852-0.06-1.23c-0.08-0.381-0.245-0.66-0.495-0.84s-0.635,0.02-1.155,0.6
		c-0.46,0.5-0.88,0.461-1.26-0.121c-0.38-0.559-0.46-1.139-0.24-1.738c0.12-0.32,0.34-0.54,0.66-0.66
		c0.12,0.02,0.38,0.035,0.78,0.045c0.399,0.01,0.735,0.05,1.005,0.12c0.271,0.07,0.465,0.205,0.585,0.404
		c0.24,0.381,0.56,0.755,0.96,1.124c0.4,0.371,0.74,0.646,1.021,0.826l0.42,0.24c0-0.061,0.095-0.455,0.285-1.186
		c0.189-0.729,0.244-1.305,0.165-1.725c-0.081-0.46,0.064-0.904,0.435-1.335c0.37-0.43,0.595-0.745,0.675-0.945
		c0.1-0.279,0.2-0.63,0.3-1.05c0.101-0.42,0.186-0.729,0.256-0.93c0.069-0.2,0.225-0.425,0.465-0.675
		c0.239-0.25,0.579-0.465,1.02-0.646c-0.12-0.359-0.02-0.729,0.3-1.109c0.16,0,0.396,0.015,0.705,0.045
		c0.311,0.029,0.556,0.045,0.735,0.045s0.385-0.045,0.615-0.135c0.229-0.091,0.435-0.245,0.614-0.466
		c-0.2-0.46-0.505-0.885-0.915-1.274c-0.41-0.391-0.79-0.69-1.14-0.9s-0.84-0.475-1.47-0.795c-0.63-0.319-1.065-0.55-1.305-0.689
		c0.22-0.82,0.229-1.261,0.029-1.32c0.62,0.26,1.205,0.405,1.755,0.435c0.55,0.03,0.945-0.005,1.186-0.104l0.33-0.12
		c0.12-0.72-0.051-1.255-0.511-1.605c-0.46-0.35-1.1-0.635-1.92-0.854s-1.38-0.45-1.68-0.69
		C84.771,60.816,84.401,60.816,84.041,60.756z M83.621,63.966c0,0.36,0.08,0.785,0.24,1.275s0.325,0.93,0.495,1.32
		c0.17,0.39,0.265,0.625,0.285,0.705c-0.18-0.04-0.49-0.091-0.93-0.15c-0.44-0.061-0.801-0.109-1.08-0.15
		c-0.28-0.039-0.601-0.12-0.96-0.239c-0.36-0.12-0.66-0.26-0.9-0.421c0.06-0.239,0.22-0.539,0.479-0.899s0.421-0.61,0.48-0.75
		c0.199,0.2,0.385,0.3,0.555,0.3s0.311-0.06,0.42-0.18c0.11-0.12,0.256-0.265,0.436-0.436
		C83.321,64.172,83.481,64.046,83.621,63.966z"/>
</g>
<g id="Layer_3">
	<g>
		<path fill="#ECECEC" d="M431,323.079c0,4.645-3.765,8.41-8.409,8.41H55.409c-4.645,0-8.409-3.765-8.409-8.41v-50.181
			c0-4.645,3.765-8.41,8.409-8.41h367.182c4.645,0,8.409,3.765,8.409,8.41V323.079z"/>
		<path fill="#FFFFFF" d="M430,324.843c0,4.222-3.423,7.645-7.645,7.645H55.645c-4.222,0-7.645-3.423-7.645-7.645v-50.71
			c0-4.222,3.423-7.645,7.645-7.645h366.711c4.222,0,7.645,3.423,7.645,7.645V324.843z"/>
		<path fill="#CDCCCC" d="M422.221,265.488c4.204,0,7.779,2.94,7.779,7.145v50.456c0,4.205-3.575,7.399-7.779,7.399H55.268
			c-4.204,0-7.268-3.194-7.268-7.399v-50.456c0-4.205,3.063-7.145,7.268-7.145H422 M422.221,263.488H55.268
			c-5.059,0-9.268,4.086-9.268,9.145v50.456c0,5.059,4.209,9.399,9.268,9.399h366.953c5.059,0,8.779-4.34,8.779-9.399v-50.456
			C431,267.575,427.279,263.488,422.221,263.488L422.221,263.488z"/>
	</g>
	<g>
		<path fill="#CDCCCC" d="M120,331.488H56.033c-4.223,0-8.033-3.412-8.033-7.635v-50.456c0-4.223,3.811-7.909,8.033-7.909H120
			V331.488z"/>
		<path fill="#EFEEEE" d="M119,331.488H54.504c-4.223,0-7.504-3.412-7.504-7.635v-50.456c0-4.223,3.281-7.909,7.504-7.909H119
			V331.488z"/>
	</g>
	<text transform="matrix(1 0 0 1 136.9453 299.1612)" fill="#989898" font-family="'HelveticaNeue'" font-size="27.5215">Business Tier</text>
	<text transform="matrix(1 0 0 1 136.9453 318.1597)" fill="#989898" font-family="'HelveticaNeue'" font-size="14">Session Beans (EJB 3.0) + Entity Beans (JPA)</text>
	<path fill="#231F20" d="M89.307,287.361h9c0.82,0,1.525,0.295,2.115,0.885s0.885,1.295,0.885,2.115v12h-15v-3h-6v3h-15v-12
		c0-0.82,0.295-1.525,0.885-2.115s1.295-0.885,2.115-0.885h9v-3c0-0.82,0.295-1.525,0.885-2.115s1.295-0.885,2.115-0.885h6
		c0.82,0,1.525,0.295,2.115,0.885s0.885,1.295,0.885,2.115V287.361z M101.307,305.361v6c0,0.82-0.295,1.525-0.885,2.115
		s-1.295,0.885-2.115,0.885h-30c-0.82,0-1.525-0.295-2.115-0.885s-0.885-1.295-0.885-2.115v-6H101.307z M80.307,287.361h6v-3h-6
		V287.361z"/>
</g>
</svg>
